<svg width="48" height="49" viewBox="0 0 48 49" fill="none" xmlns="http://www.w3.org/2000/svg">
<path d="M8 23.2061C8 21.3204 8 20.3776 8.58579 19.7918C9.17157 19.2061 10.1144 19.2061 12 19.2061H36C37.8856 19.2061 38.8284 19.2061 39.4142 19.7918C40 20.3776 40 21.3204 40 23.2061V36.5002C40 39.3286 40 40.7428 39.1213 41.6215C38.2426 42.5002 36.8284 42.5002 34 42.5002H14C11.1716 42.5002 9.75736 42.5002 8.87868 41.6215C8 40.7428 8 39.3286 8 36.5002V23.2061Z" stroke="#353535" stroke-width="2"/>
<path d="M33.6006 19.2059V16.1C33.6006 11.7738 33.6006 9.61066 32.3512 8.19344C32.2126 8.03629 32.0643 7.888 31.9072 7.74945C30.49 6.5 28.3269 6.5 24.0006 6.5V6.5C19.6744 6.5 17.5113 6.5 16.0941 7.74945C15.9369 7.888 15.7886 8.03629 15.6501 8.19344C14.4006 9.61066 14.4006 11.7738 14.4006 16.1V19.2059" stroke="#353535" stroke-width="2" stroke-linecap="round"/>
</svg>
