<svg width="24" height="24" viewBox="0 0 24 24" fill="none" xmlns="http://www.w3.org/2000/svg">
<path d="M9.04665 6.41663C9.04665 6.79965 9.12302 7.17892 9.27141 7.53278C9.4198 7.88664 9.6373 8.20817 9.91149 8.479C10.1857 8.74983 10.5112 8.96467 10.8694 9.11125C11.2277 9.25782 11.6116 9.33326 11.9994 9.33326C12.3872 9.33326 12.7711 9.25782 13.1294 9.11125C13.4876 8.96467 13.8131 8.74983 14.0873 8.479C14.3615 8.20817 14.579 7.88664 14.7274 7.53278C14.8758 7.17891 14.9521 6.79965 14.9521 6.41663C14.9521 6.03361 14.8758 5.65435 14.7274 5.30048C14.579 4.94662 14.3615 4.62509 14.0873 4.35426C13.8131 4.08343 13.4876 3.86859 13.1294 3.72201C12.7711 3.57544 12.3872 3.5 11.9994 3.5C11.6116 3.5 11.2277 3.57544 10.8694 3.72202C10.5112 3.86859 10.1857 4.08343 9.91149 4.35426C9.6373 4.6251 9.4198 4.94662 9.27141 5.30049C9.12302 5.65435 9.04665 6.03362 9.04665 6.41663L9.04665 6.41663Z" stroke="#060606"/>
<path d="M4.55748 14.0987C4.22167 14.2902 3.92733 14.5452 3.69128 14.849C3.45522 15.1529 3.28207 15.4997 3.18171 15.8697C3.08135 16.2397 3.05575 16.6255 3.10636 17.0053C3.15698 17.385 3.28282 17.7512 3.4767 18.0829C3.67058 18.4146 3.9287 18.7053 4.23633 18.9385C4.54396 19.1717 4.89508 19.3427 5.26962 19.4418C5.64417 19.541 6.03482 19.5663 6.41926 19.5163C6.80371 19.4663 7.17442 19.342 7.51023 19.1505C7.84604 18.9589 8.14037 18.704 8.37643 18.4001C8.61248 18.0962 8.78563 17.7494 8.88599 17.3795C8.98635 17.0095 9.01195 16.6236 8.96134 16.2439C8.91073 15.8641 8.78489 15.498 8.59101 15.1663C8.39713 14.8346 8.139 14.5438 7.83137 14.3107C7.52374 14.0775 7.17263 13.9065 6.79808 13.8073C6.42353 13.7082 6.03288 13.6829 5.64844 13.7329C5.264 13.7829 4.89329 13.9072 4.55748 14.0987L4.55748 14.0987Z" stroke="#060606"/>
<path d="M19.4425 14.0987C19.7783 14.2902 20.0727 14.5452 20.3087 14.849C20.5448 15.1529 20.7179 15.4997 20.8183 15.8697C20.9186 16.2397 20.9443 16.6255 20.8936 17.0053C20.843 17.385 20.7172 17.7512 20.5233 18.0829C20.3294 18.4146 20.0713 18.7053 19.7637 18.9385C19.456 19.1717 19.1049 19.3427 18.7304 19.4418C18.3558 19.541 17.9652 19.5663 17.5807 19.5163C17.1963 19.4663 16.8256 19.342 16.4898 19.1505C16.154 18.9589 15.8596 18.704 15.6236 18.4001C15.3875 18.0962 15.2144 17.7494 15.114 17.3795C15.0137 17.0095 14.988 16.6236 15.0387 16.2439C15.0893 15.8641 15.2151 15.498 15.409 15.1663C15.6029 14.8346 15.861 14.5438 16.1686 14.3107C16.4763 14.0775 16.8274 13.9065 17.2019 13.8073C17.5765 13.7082 17.9671 13.6829 18.3516 13.7329C18.736 13.7829 19.1067 13.9072 19.4425 14.0987L19.4425 14.0987Z" stroke="#060606"/>
<path fill-rule="evenodd" clip-rule="evenodd" d="M9.04997 6.55251C9.04785 6.50742 9.04679 6.46224 9.04679 6.41701C9.04679 6.07362 9.10818 5.73324 9.22781 5.41148C9.08303 5.46169 8.93949 5.51589 8.79739 5.57403C7.78185 5.98953 6.85872 6.59871 6.08084 7.36706C5.30296 8.13543 4.68558 9.04796 4.26425 10.0527C3.84291 11.0574 3.62598 12.1345 3.62598 13.2224C3.62598 13.7366 3.67443 14.2483 3.77 14.7511C3.99137 14.4902 4.25747 14.2694 4.55645 14.0989C4.5946 14.0772 4.63321 14.0563 4.67223 14.0363C4.64148 13.7666 4.62598 13.4949 4.62598 13.2224C4.62598 12.2676 4.81637 11.3219 5.18645 10.4394C5.55653 9.55688 6.09913 8.75459 6.78359 8.07851C7.43577 7.4343 8.20457 6.91671 9.04997 6.55251ZM14.9491 6.55214C15.7949 6.91636 16.564 7.43408 17.2164 8.0785C17.9008 8.75458 18.4434 9.55687 18.8135 10.4394C19.1836 11.3219 19.374 12.2676 19.374 13.2224C19.374 13.495 19.3585 13.7669 19.3277 14.0367C19.3664 14.0566 19.4047 14.0773 19.4426 14.0989C19.7419 14.2696 20.0083 14.4907 20.2298 14.7519C20.3255 14.2488 20.374 13.7368 20.374 13.2224C20.374 12.1345 20.157 11.0574 19.7357 10.0527C19.3144 9.04795 18.697 8.13543 17.9191 7.36706C17.1412 6.5987 16.2181 5.98953 15.2026 5.57403C15.0601 5.51575 14.9163 5.46144 14.7711 5.41113C14.8909 5.73299 14.9523 6.07349 14.9523 6.41701C14.9523 6.46212 14.9512 6.50717 14.9491 6.55214ZM17.4603 19.4983C17.119 19.4397 16.7905 19.3221 16.4899 19.1507C16.4508 19.1284 16.4123 19.1053 16.3743 19.0813C15.896 19.4292 15.3755 19.7196 14.8239 19.9453C13.9288 20.3115 12.9692 20.5001 12 20.5001C11.0308 20.5001 10.0712 20.3115 9.17607 19.9453C8.62426 19.7195 8.10369 19.429 7.6252 19.081C7.58712 19.1051 7.54844 19.1283 7.5092 19.1507C7.20883 19.322 6.88054 19.4395 6.53947 19.4982C7.21275 20.0706 7.97475 20.5343 8.79739 20.8708C9.81291 21.2863 10.9011 21.5001 12 21.5001C13.0988 21.5001 14.187 21.2863 15.2026 20.8708C16.0251 20.5343 16.7871 20.0707 17.4603 19.4983Z" fill="#353535"/>
</svg>
