<svg width="48" height="48" viewBox="0 0 48 48" fill="none" xmlns="http://www.w3.org/2000/svg">
<path d="M18.0933 12.8333C18.0933 13.5993 18.246 14.3578 18.5428 15.0656C18.8396 15.7733 19.2746 16.4163 19.823 16.958C20.3714 17.4997 21.0224 17.9293 21.7389 18.2225C22.4553 18.5156 23.2233 18.6665 23.9988 18.6665C24.7743 18.6665 25.5422 18.5156 26.2587 18.2225C26.9752 17.9293 27.6262 17.4997 28.1746 16.958C28.723 16.4163 29.158 15.7733 29.4548 15.0656C29.7515 14.3578 29.9043 13.5993 29.9043 12.8333C29.9043 12.0672 29.7515 11.3087 29.4548 10.601C29.158 9.89324 28.723 9.25019 28.1746 8.70852C27.6262 8.16685 26.9752 7.73718 26.2587 7.44403C25.5422 7.15088 24.7743 7 23.9988 7C23.2233 7 22.4553 7.15088 21.7389 7.44403C21.0224 7.73718 20.3714 8.16686 19.823 8.70853C19.2746 9.25019 18.8396 9.89325 18.5428 10.601C18.246 11.3087 18.0933 12.0672 18.0933 12.8333L18.0933 12.8333Z" stroke="#060606" stroke-width="2"/>
<path d="M9.11495 28.1976C8.44333 28.5807 7.85466 29.0906 7.38255 29.6983C6.91045 30.3061 6.56415 30.9997 6.36343 31.7396C6.16271 32.4796 6.1115 33.2513 6.21272 34.0108C6.31395 34.7703 6.56563 35.5026 6.95339 36.166C7.34115 36.8294 7.8574 37.4109 8.47266 37.8772C9.08793 38.3436 9.79015 38.6856 10.5392 38.8839C11.2883 39.0822 12.0696 39.1327 12.8385 39.0328C13.6074 38.9328 14.3488 38.6842 15.0205 38.3012C15.6921 37.9181 16.2807 37.4082 16.7529 36.8005C17.225 36.1927 17.5713 35.4991 17.772 34.7592C17.9727 34.0192 18.0239 33.2475 17.9227 32.488C17.8215 31.7285 17.5698 30.9962 17.182 30.3328C16.7943 29.6694 16.278 29.0879 15.6627 28.6216C15.0475 28.1552 14.3453 27.8132 13.5962 27.6149C12.8471 27.4166 12.0658 27.3661 11.2969 27.466C10.528 27.566 9.78657 27.8146 9.11495 28.1976L9.11495 28.1976Z" stroke="#060606" stroke-width="2"/>
<path d="M38.885 28.1976C39.5567 28.5807 40.1453 29.0906 40.6174 29.6983C41.0896 30.3061 41.4359 30.9997 41.6366 31.7396C41.8373 32.4796 41.8885 33.2513 41.7873 34.0108C41.6861 34.7703 41.4344 35.5026 41.0466 36.166C40.6589 36.8294 40.1426 37.4109 39.5273 37.8772C38.9121 38.3436 38.2098 38.6856 37.4608 38.8839C36.7117 39.0822 35.9304 39.1327 35.1615 39.0328C34.3926 38.9328 33.6512 38.6842 32.9795 38.3012C32.3079 37.9181 31.7193 37.4082 31.2471 36.8005C30.775 36.1927 30.4287 35.4991 30.228 34.7592C30.0273 34.0192 29.9761 33.2475 30.0773 32.488C30.1785 31.7285 30.4302 30.9962 30.818 30.3328C31.2057 29.6694 31.722 29.0879 32.3373 28.6216C32.9525 28.1552 33.6547 27.8132 34.4038 27.6149C35.1529 27.4166 35.9342 27.3661 36.7031 27.466C37.472 27.566 38.2134 27.8146 38.8851 28.1976L38.885 28.1976Z" stroke="#060606" stroke-width="2"/>
<path fill-rule="evenodd" clip-rule="evenodd" d="M18.1 12.5624C16.2743 13.3188 14.6154 14.419 13.2158 15.8014C11.8002 17.1997 10.6776 18.8594 9.91179 20.6856C9.14601 22.5117 8.75195 24.4688 8.75195 26.445C8.75195 27.0806 8.79272 27.7142 8.8735 28.3421C8.54831 28.5485 8.24483 28.7857 7.96724 29.05C7.82429 28.1909 7.75195 27.3197 7.75195 26.445C7.75195 24.3357 8.17256 22.2473 8.9896 20.2989C9.80663 18.3505 11.004 16.5806 12.5131 15.09C14.0221 13.5994 15.8133 12.4173 17.7841 11.611C17.945 11.5452 18.1067 11.482 18.2694 11.4214C18.175 11.7948 18.1182 12.177 18.1 12.5624ZM29.8981 12.5616C31.7245 13.318 33.384 14.4185 34.7841 15.8014C36.1997 17.1997 37.3223 18.8594 38.0881 20.6856C38.8539 22.5117 39.248 24.4688 39.248 26.445C39.248 27.081 39.2071 27.7149 39.1263 28.3432C39.4514 28.5497 39.7549 28.787 40.0324 29.0514C40.1755 28.1919 40.248 27.3202 40.248 26.445C40.248 24.3357 39.8273 22.2472 39.0103 20.2989C38.1933 18.3505 36.9959 16.5806 35.4868 15.09C33.9778 13.5994 32.1866 12.4173 30.2158 11.611C30.0543 11.5449 29.8919 11.4815 29.7286 11.4207C29.823 11.794 29.8799 12.1762 29.8981 12.5616ZM34.3059 38.8574C33.9324 38.7517 33.57 38.6097 33.2239 38.4333C32.1854 39.2123 31.0475 39.8583 29.8371 40.3535C27.9867 41.1106 26.0032 41.5004 24 41.5004C21.9967 41.5004 20.0132 41.1106 18.1628 40.3535C16.9521 39.8582 15.814 39.212 14.7753 38.4328C14.4293 38.6092 14.067 38.7512 13.6936 38.857C14.927 39.857 16.305 40.6739 17.7841 41.2791C19.755 42.0854 21.8671 42.5004 24 42.5004C26.1328 42.5004 28.245 42.0854 30.2158 41.2791C31.6948 40.6739 33.0726 39.8572 34.3059 38.8574Z" fill="#060606"/>
<path d="M13.2158 15.8014L13.5672 16.1572L13.5672 16.1572L13.2158 15.8014ZM18.1 12.5624L18.2914 13.0243L18.5845 12.9028L18.5994 12.5859L18.1 12.5624ZM9.91179 20.6856L10.3729 20.879L10.3729 20.879L9.91179 20.6856ZM8.75195 26.445L9.25195 26.445L9.25195 26.445L8.75195 26.445ZM8.8735 28.3421L9.14141 28.7643L9.41 28.5938L9.36941 28.2783L8.8735 28.3421ZM7.96724 29.05L7.47402 29.132L7.62886 30.0625L8.31202 29.4121L7.96724 29.05ZM7.75195 26.445L8.25195 26.445L8.25195 26.445L7.75195 26.445ZM8.9896 20.2989L8.5285 20.1055L8.5285 20.1055L8.9896 20.2989ZM12.5131 15.09L12.1617 14.7343L12.1617 14.7343L12.5131 15.09ZM17.7841 11.611L17.9734 12.0737L17.9734 12.0737L17.7841 11.611ZM18.2694 11.4214L18.7542 11.5439L18.9875 10.6204L18.0949 10.9528L18.2694 11.4214ZM29.8981 12.5616L29.3987 12.5853L29.4137 12.9022L29.7068 13.0236L29.8981 12.5616ZM34.7841 15.8014L35.1355 15.4457L35.1355 15.4457L34.7841 15.8014ZM38.0881 20.6856L37.627 20.8789L37.627 20.8789L38.0881 20.6856ZM39.1263 28.3432L38.6304 28.2793L38.5898 28.5948L38.8582 28.7652L39.1263 28.3432ZM40.0324 29.0514L39.6875 29.4134L40.3707 30.0643L40.5256 29.1335L40.0324 29.0514ZM39.0103 20.2989L39.4714 20.1055L39.4714 20.1055L39.0103 20.2989ZM35.4868 15.09L35.1355 15.4457L35.1355 15.4457L35.4868 15.09ZM30.2158 11.611L30.4051 11.1482L30.4051 11.1482L30.2158 11.611ZM29.7286 11.4207L29.903 10.9521L29.0103 10.6197L29.2438 11.5432L29.7286 11.4207ZM33.2239 38.4333L33.451 37.9878L33.1733 37.8462L32.9239 38.0333L33.2239 38.4333ZM34.3059 38.8574L34.6207 39.2458L35.3695 38.6388L34.442 38.3763L34.3059 38.8574ZM29.8371 40.3535L30.0265 40.8163L30.0265 40.8163L29.8371 40.3535ZM18.1628 40.3535L18.3521 39.8908L18.3521 39.8908L18.1628 40.3535ZM14.7753 38.4328L15.0753 38.0328L14.8259 37.8457L14.5481 37.9873L14.7753 38.4328ZM13.6936 38.857L13.5573 38.3759L12.6302 38.6386L13.3787 39.2454L13.6936 38.857ZM17.7841 41.2791L17.9735 40.8163L17.9735 40.8163L17.7841 41.2791ZM30.2158 41.2791L30.0265 40.8163L30.0265 40.8163L30.2158 41.2791ZM13.5672 16.1572C14.9206 14.8203 16.5251 13.7561 18.2914 13.0243L17.9086 12.1004C16.0235 12.8815 14.3102 14.0176 12.8644 15.4457L13.5672 16.1572ZM10.3729 20.879C11.1131 19.1139 12.1983 17.5093 13.5672 16.1572L12.8644 15.4457C11.4021 16.8902 10.2421 18.605 9.4507 20.4922L10.3729 20.879ZM9.25195 26.445C9.25195 24.5353 9.63274 22.644 10.3729 20.879L9.4507 20.4922C8.65928 22.3795 8.25195 24.4023 8.25195 26.445L9.25195 26.445ZM9.36941 28.2783C9.29134 27.6715 9.25195 27.0592 9.25195 26.445H8.25195C8.25195 27.102 8.29409 27.7569 8.37758 28.4059L9.36941 28.2783ZM8.60558 27.92C8.25291 28.1438 7.92368 28.401 7.62246 28.6878L8.31202 29.4121C8.56598 29.1703 8.84372 28.9532 9.14141 28.7643L8.60558 27.92ZM7.25195 26.445C7.25195 27.3473 7.32657 28.2459 7.47402 29.132L8.46046 28.9679C8.32201 28.1359 8.25195 27.2922 8.25195 26.445H7.25195ZM8.5285 20.1055C7.68583 22.115 7.25195 24.2692 7.25195 26.445L8.25195 26.445C8.25195 24.4023 8.65929 22.3795 9.45069 20.4922L8.5285 20.1055ZM12.1617 14.7343C10.6059 16.271 9.37115 18.0961 8.5285 20.1055L9.45069 20.4922C10.2421 18.605 11.4021 16.8902 12.8644 15.4457L12.1617 14.7343ZM17.5948 11.1482C15.5637 11.9792 13.7174 13.1976 12.1617 14.7343L12.8644 15.4457C14.3268 14.0013 16.0628 12.8555 17.9734 12.0737L17.5948 11.1482ZM18.0949 10.9528C17.9273 11.0153 17.7605 11.0804 17.5948 11.1482L17.9734 12.0737C18.1294 12.0099 18.2862 11.9487 18.4439 11.8899L18.0949 10.9528ZM17.7846 11.2989C17.6821 11.7046 17.6203 12.1199 17.6005 12.5388L18.5994 12.5859C18.6161 12.234 18.668 11.8849 18.7542 11.5439L17.7846 11.2989ZM29.7068 13.0236C31.4737 13.7554 33.0789 14.8198 34.4327 16.1572L35.1355 15.4457C33.6892 14.0171 31.9753 12.8807 30.0894 12.0997L29.7068 13.0236ZM34.4327 16.1571C35.8016 17.5093 36.8868 19.1139 37.627 20.8789L38.5492 20.4922C37.7578 18.605 36.5978 16.8902 35.1355 15.4457L34.4327 16.1571ZM37.627 20.8789C38.3672 22.644 38.748 24.5353 38.748 26.445H39.748C39.748 24.4022 39.3406 22.3795 38.5492 20.4922L37.627 20.8789ZM38.748 26.445C38.748 27.0596 38.7085 27.6722 38.6304 28.2793L39.6222 28.407C39.7058 27.7576 39.748 27.1023 39.748 26.445H38.748ZM40.3773 28.6894C40.0762 28.4025 39.747 28.1451 39.3943 27.9211L38.8582 28.7652C39.1559 28.9543 39.4336 29.1715 39.6875 29.4134L40.3773 28.6894ZM40.5256 29.1335C40.6733 28.2469 40.748 27.3478 40.748 26.445H39.748C39.748 27.2926 39.6778 28.1368 39.5392 28.9693L40.5256 29.1335ZM40.748 26.445C40.748 24.2692 40.3141 22.115 39.4714 20.1055L38.5492 20.4922C39.3406 22.3795 39.748 24.4022 39.748 26.445H40.748ZM39.4714 20.1055C38.6287 18.096 37.394 16.271 35.8382 14.7343L35.1355 15.4457C36.5978 16.8902 37.7578 18.605 38.5492 20.4922L39.4714 20.1055ZM35.8382 14.7343C34.2825 13.1975 32.4362 11.9792 30.4051 11.1482L30.0264 12.0737C31.9371 12.8555 33.6731 14.0013 35.1355 15.4457L35.8382 14.7343ZM30.4051 11.1482C30.2387 11.0801 30.0713 11.0147 29.903 10.9521L29.5541 11.8892C29.7124 11.9482 29.8699 12.0097 30.0264 12.0737L30.4051 11.1482ZM30.3976 12.538C30.3777 12.1191 30.3159 11.7038 30.2133 11.2981L29.2438 11.5432C29.3301 11.8843 29.382 12.2333 29.3987 12.5853L30.3976 12.538ZM32.9968 38.8787C33.372 39.07 33.7649 39.2239 34.1697 39.3385L34.442 38.3763C34.0999 38.2794 33.7679 38.1494 33.451 37.9878L32.9968 38.8787ZM32.9239 38.0333C31.9194 38.7867 30.8188 39.4117 29.6478 39.8908L30.0265 40.8163C31.2762 40.3049 32.4513 39.6378 33.5239 38.8333L32.9239 38.0333ZM29.6478 39.8908C27.8576 40.6232 25.9384 41.0004 24 41.0004V42.0004C26.068 42.0004 28.1158 41.598 30.0265 40.8163L29.6478 39.8908ZM24 41.0004C22.0615 41.0004 20.1424 40.6232 18.3521 39.8908L17.9735 40.8163C19.8841 41.598 21.9319 42.0004 24 42.0004V41.0004ZM18.3521 39.8908C17.1809 39.4116 16.08 38.7865 15.0753 38.0328L14.4752 38.8327C15.5481 39.6375 16.7234 40.3048 17.9735 40.8163L18.3521 39.8908ZM13.8299 39.3381C14.2345 39.2235 14.6274 39.0695 15.0025 38.8782L14.5481 37.9873C14.2313 38.149 13.8994 38.279 13.5573 38.3759L13.8299 39.3381ZM13.3787 39.2454C14.6502 40.2763 16.0704 41.1181 17.5948 41.7418L17.9735 40.8163C16.5395 40.2296 15.2039 39.4378 14.0085 38.4686L13.3787 39.2454ZM17.5948 41.7418C19.6258 42.5728 21.8023 43.0004 24 43.0004V42.0004C21.9319 42.0004 19.8841 41.598 17.9735 40.8163L17.5948 41.7418ZM24 43.0004C26.1976 43.0004 28.3741 42.5728 30.4051 41.7418L30.0265 40.8163C28.1158 41.598 26.068 42.0004 24 42.0004V43.0004ZM30.4051 41.7418C31.9293 41.1182 33.3494 40.2765 34.6207 39.2458L33.991 38.469C32.7957 39.438 31.4602 40.2297 30.0265 40.8163L30.4051 41.7418Z" fill="black"/>
</svg>
