<svg width="48" height="49" viewBox="0 0 48 49" fill="none" xmlns="http://www.w3.org/2000/svg">
<path d="M24 13.1555V40.5841" stroke="#353535" stroke-width="2" stroke-linecap="round"/>
<path d="M42 13.1555V40.5841" stroke="#353535" stroke-width="2" stroke-linecap="round"/>
<path d="M6 13.1555V40.5841" stroke="#353535" stroke-width="2" stroke-linecap="round"/>
<path d="M42 40.5844C42 40.5844 39.8824 36.0129 32.4706 36.0129C25.0588 36.0129 24 40.5844 24 40.5844" stroke="#353535" stroke-width="2" stroke-linecap="round"/>
<path d="M6 40.5844C6 40.5844 8.11765 36.0129 15.5294 36.0129C22.9412 36.0129 24 40.5844 24 40.5844" stroke="#353535" stroke-width="2" stroke-linecap="round"/>
<path d="M42 13.1554C42 13.1554 39.8824 8.58398 32.4706 8.58398C25.0588 8.58398 24 13.1554 24 13.1554" stroke="#353535" stroke-width="2" stroke-linecap="round"/>
<path d="M6 13.1554C6 13.1554 8.11765 8.58398 15.5294 8.58398C22.9412 8.58398 24 13.1554 24 13.1554" stroke="#353535" stroke-width="2" stroke-linecap="round"/>
</svg>
