<svg width="18" height="18" viewBox="0 0 18 18" fill="none" xmlns="http://www.w3.org/2000/svg">
<path d="M14.1893 4.16973L13.8358 4.52329L14.1893 4.16973L14.0178 3.99816L13.9945 3.97488C13.6811 3.66145 13.4111 3.39138 13.1657 3.2042C12.9028 3.0036 12.6104 2.85171 12.25 2.85171C11.8896 2.85171 11.5972 3.0036 11.3343 3.2042C11.0889 3.39138 10.8189 3.66145 10.5055 3.97489L10.4822 3.99816L3.28816 11.1922C3.27714 11.2033 3.26619 11.2142 3.25533 11.225C3.09286 11.3871 2.94903 11.5307 2.84766 11.7097C2.7463 11.8887 2.69723 12.0859 2.64179 12.3086C2.63809 12.3235 2.63435 12.3385 2.63057 12.3537L1.96704 15.0078C1.96483 15.0166 1.9626 15.0255 1.96036 15.0345C1.92112 15.1912 1.87921 15.3585 1.86546 15.499C1.85032 15.6538 1.85385 15.9148 2.06326 16.1242C2.27267 16.3336 2.53373 16.3372 2.68846 16.322C2.82899 16.3083 2.99633 16.2664 3.15301 16.2271C3.16195 16.2249 3.17085 16.2227 3.17971 16.2205L3.17972 16.2205L3.20149 16.215L3.20151 16.215L5.83384 15.5569C5.84896 15.5531 5.86396 15.5494 5.87885 15.5457C6.10159 15.4903 6.29877 15.4412 6.4778 15.3398C6.65683 15.2385 6.80035 15.0946 6.96248 14.9322C6.97332 14.9213 6.98425 14.9104 6.99527 14.8993L14.1893 7.70527L14.1893 7.70526L14.2126 7.68198C14.5261 7.36858 14.7961 7.09855 14.9833 6.85323C15.1839 6.59031 15.3358 6.29788 15.3358 5.9375C15.3358 5.57711 15.1839 5.28469 14.9833 5.02177C14.7961 4.77644 14.526 4.5064 14.2126 4.193L14.1893 4.16973Z" stroke="#060606"/>
<path d="M9.75 4.4375L12.75 2.4375L15.75 5.4375L13.75 8.4375L9.75 4.4375Z" fill="#060606"/>
</svg>
