<svg width="24" height="24" viewBox="0 0 24 24" fill="none" xmlns="http://www.w3.org/2000/svg">
<path d="M11.5 3.5L4.5 6.5L11.5 9.5L18.5 6.5L11.5 3.5Z" stroke="#060606" stroke-linejoin="round"/>
<path fill-rule="evenodd" clip-rule="evenodd" d="M7.16009 9.81592L4.30304 11.0404C4.1192 11.1192 4 11.2999 4 11.4999C4 11.7 4.1192 11.8807 4.30304 11.9595L11.303 14.9595C11.4288 15.0134 11.5712 15.0134 11.697 14.9595L18.697 11.9595C18.8808 11.8807 19 11.7 19 11.4999C19 11.2999 18.8808 11.1192 18.697 11.0404L15.8399 9.81592L14.5706 10.3599L17.2307 11.4999L11.5 13.956L5.7693 11.4999L8.42939 10.3599L7.16009 9.81592Z" fill="#060606"/>
<path fill-rule="evenodd" clip-rule="evenodd" d="M7.16009 14.8159L4.30304 16.0404C4.1192 16.1192 4 16.2999 4 16.4999C4 16.7 4.1192 16.8807 4.30304 16.9595L11.303 19.9595C11.4288 20.0134 11.5712 20.0134 11.697 19.9595L18.697 16.9595C18.8808 16.8807 19 16.7 19 16.4999C19 16.2999 18.8808 16.1192 18.697 16.0404L15.8399 14.8159L14.5706 15.3599L17.2307 16.4999L11.5 18.956L5.7693 16.4999L8.42939 15.3599L7.16009 14.8159Z" fill="#060606"/>
</svg>
