<svg width="48" height="48" viewBox="0 0 48 48" fill="none" xmlns="http://www.w3.org/2000/svg">
<path d="M23 7L9 13L23 19L37 13L23 7Z" stroke="#060606" stroke-width="2" stroke-linejoin="round"/>
<path fill-rule="evenodd" clip-rule="evenodd" d="M17.4934 18.816L8.80304 22.5404C8.6192 22.6192 8.5 22.8 8.5 23C8.5 23.2 8.6192 23.3808 8.80304 23.4596L22.803 29.4596C22.9288 29.5135 23.0712 29.5135 23.197 29.4596L37.197 23.4596C37.3808 23.3808 37.5 23.2 37.5 23C37.5 22.8 37.3808 22.6192 37.197 22.5404L28.5066 18.816L27.2373 19.36L35.7307 23L23 28.456L10.2693 23L18.7627 19.36L17.4934 18.816ZM22.5706 16.64L22.803 16.5404C22.9288 16.4865 23.0712 16.4865 23.197 16.5404L23.4294 16.64L23 16.8241L22.5706 16.64Z" fill="#060606"/>
<path d="M8.80304 22.5404L9 23L9 23L8.80304 22.5404ZM17.4934 18.816L17.6904 18.3564C17.5646 18.3025 17.4222 18.3025 17.2965 18.3564L17.4934 18.816ZM8.80304 23.4596L9 23L9 23L8.80304 23.4596ZM22.803 29.4596L22.6061 29.9191L22.6061 29.9191L22.803 29.4596ZM23.197 29.4596L23.3939 29.9191L23.3939 29.9191L23.197 29.4596ZM37.197 23.4596L37 23L37 23L37.197 23.4596ZM37.197 22.5404L37 23L37 23L37.197 22.5404ZM28.5066 18.816L28.7035 18.3564C28.5778 18.3025 28.4354 18.3025 28.3096 18.3564L28.5066 18.816ZM27.2373 19.36L27.0403 18.9004C26.8565 18.9792 26.7373 19.1599 26.7373 19.36C26.7373 19.56 26.8565 19.7407 27.0403 19.8195L27.2373 19.36ZM35.7307 23L35.9277 23.4596C36.1115 23.3808 36.2307 23.2 36.2307 23C36.2307 22.8 36.1115 22.6192 35.9277 22.5404L35.7307 23ZM23 28.456L22.803 28.9156C22.9288 28.9695 23.0712 28.9695 23.197 28.9156L23 28.456ZM10.2693 23L10.0723 22.5404C9.88849 22.6192 9.7693 22.8 9.7693 23C9.7693 23.2 9.88849 23.3808 10.0723 23.4596L10.2693 23ZM18.7627 19.36L18.9597 19.8195C19.1435 19.7407 19.2627 19.56 19.2627 19.36C19.2627 19.1599 19.1435 18.9792 18.9597 18.9004L18.7627 19.36ZM22.5706 16.64L22.3737 16.1805C22.1898 16.2593 22.0706 16.44 22.0706 16.64C22.0706 16.8401 22.1898 17.0208 22.3737 17.0996L22.5706 16.64ZM22.803 16.5404L22.6061 16.0809L22.6061 16.0809L22.803 16.5404ZM23.197 16.5404L23.3939 16.0809L23.3939 16.0809L23.197 16.5404ZM23.4294 16.64L23.6263 17.0996C23.8102 17.0208 23.9294 16.8401 23.9294 16.64C23.9294 16.44 23.8102 16.2593 23.6263 16.1805L23.4294 16.64ZM23 16.8241L22.803 17.2836C22.9288 17.3375 23.0712 17.3375 23.197 17.2836L23 16.8241ZM9 23L17.6904 19.2755L17.2965 18.3564L8.60608 22.0809L9 23ZM9 23L9 23L8.60608 22.0809C8.2384 22.2384 8 22.6 8 23H9ZM9 23L9 23H8C8 23.4 8.2384 23.7616 8.60608 23.9191L9 23ZM23 29L9 23L8.60608 23.9191L22.6061 29.9191L23 29ZM23 29H23L22.6061 29.9191C22.8576 30.027 23.1424 30.027 23.3939 29.9191L23 29ZM37 23L23 29L23.3939 29.9191L37.3939 23.9191L37 23ZM37 23L37 23L37.3939 23.9191C37.7616 23.7616 38 23.4 38 23H37ZM37 23L37 23H38C38 22.6 37.7616 22.2384 37.3939 22.0809L37 23ZM28.3096 19.2755L37 23L37.3939 22.0809L28.7035 18.3564L28.3096 19.2755ZM28.3096 18.3564L27.0403 18.9004L27.4342 19.8195L28.7035 19.2755L28.3096 18.3564ZM35.9277 22.5404L27.4342 18.9004L27.0403 19.8195L35.5337 23.4596L35.9277 22.5404ZM23.197 28.9156L35.9277 23.4596L35.5337 22.5404L22.803 27.9964L23.197 28.9156ZM10.0723 23.4596L22.803 28.9156L23.197 27.9964L10.4663 22.5404L10.0723 23.4596ZM18.5658 18.9004L10.0723 22.5404L10.4663 23.4596L18.9597 19.8195L18.5658 18.9004ZM18.9597 18.9004L17.6904 18.3564L17.2965 19.2755L18.5658 19.8195L18.9597 18.9004ZM22.7676 17.0996L23 17L22.6061 16.0809L22.3737 16.1805L22.7676 17.0996ZM23 17H23L23.3939 16.0809C23.1424 15.973 22.8576 15.973 22.6061 16.0809L23 17ZM23 17L23.2324 17.0996L23.6263 16.1805L23.3939 16.0809L23 17ZM23.197 17.2836L23.6263 17.0996L23.2324 16.1805L22.803 16.3645L23.197 17.2836ZM22.3737 17.0996L22.803 17.2836L23.197 16.3645L22.7676 16.1805L22.3737 17.0996Z" fill="black"/>
<path fill-rule="evenodd" clip-rule="evenodd" d="M17.4934 28.816L8.80304 32.5404C8.6192 32.6192 8.5 32.8 8.5 33C8.5 33.2 8.6192 33.3808 8.80304 33.4596L22.803 39.4596C22.9288 39.5135 23.0712 39.5135 23.197 39.4596L37.197 33.4596C37.3808 33.3808 37.5 33.2 37.5 33C37.5 32.8 37.3808 32.6192 37.197 32.5404L28.5066 28.816L27.2373 29.36L35.7307 33L23 38.456L10.2693 33L18.7627 29.36L17.4934 28.816ZM22.5706 26.64L22.803 26.5404C22.9288 26.4865 23.0712 26.4865 23.197 26.5404L23.4294 26.64L23 26.8241L22.5706 26.64Z" fill="#060606"/>
<path d="M8.80304 32.5404L8.60608 32.0809L8.60608 32.0809L8.80304 32.5404ZM17.4934 28.816L17.6904 28.3564C17.5646 28.3025 17.4222 28.3025 17.2965 28.3564L17.4934 28.816ZM8.80304 33.4596L9 33L9 33L8.80304 33.4596ZM22.803 39.4596L22.6061 39.9191L22.6061 39.9191L22.803 39.4596ZM23.197 39.4596L23.3939 39.9191L23.3939 39.9191L23.197 39.4596ZM37.197 33.4596L37 33L37 33L37.197 33.4596ZM37.197 32.5404L37.3939 32.0809L37.3939 32.0809L37.197 32.5404ZM28.5066 28.816L28.7035 28.3564C28.5778 28.3025 28.4354 28.3025 28.3096 28.3564L28.5066 28.816ZM27.2373 29.36L27.0403 28.9004C26.8565 28.9792 26.7373 29.1599 26.7373 29.36C26.7373 29.56 26.8565 29.7407 27.0403 29.8195L27.2373 29.36ZM35.7307 33L35.9277 33.4596C36.1115 33.3808 36.2307 33.2 36.2307 33C36.2307 32.8 36.1115 32.6192 35.9277 32.5404L35.7307 33ZM23 38.456L22.803 38.9156C22.9288 38.9695 23.0712 38.9695 23.197 38.9156L23 38.456ZM10.2693 33L10.0723 32.5404C9.88849 32.6192 9.7693 32.8 9.7693 33C9.7693 33.2 9.88849 33.3808 10.0723 33.4596L10.2693 33ZM18.7627 29.36L18.9597 29.8195C19.1435 29.7407 19.2627 29.56 19.2627 29.36C19.2627 29.1599 19.1435 28.9792 18.9597 28.9004L18.7627 29.36ZM22.5706 26.64L22.3737 26.1805C22.1898 26.2593 22.0706 26.44 22.0706 26.64C22.0706 26.8401 22.1898 27.0208 22.3737 27.0996L22.5706 26.64ZM22.803 26.5404L23 27L23 27L22.803 26.5404ZM23.197 26.5404L23 27L23 27L23.197 26.5404ZM23.4294 26.64L23.6263 27.0996C23.8102 27.0208 23.9294 26.8401 23.9294 26.64C23.9294 26.44 23.8102 26.2593 23.6263 26.1805L23.4294 26.64ZM23 26.8241L22.803 27.2836C22.9288 27.3375 23.0712 27.3375 23.197 27.2836L23 26.8241ZM9 33L17.6904 29.2755L17.2965 28.3564L8.60608 32.0809L9 33ZM9 33L9 33L8.60608 32.0809C8.2384 32.2384 8 32.6 8 33H9ZM9 33L9 33H8C8 33.4 8.2384 33.7616 8.60608 33.9191L9 33ZM23 39L9 33L8.60608 33.9191L22.6061 39.9191L23 39ZM23 39H23L22.6061 39.9191C22.8576 40.027 23.1424 40.027 23.3939 39.9191L23 39ZM37 33L23 39L23.3939 39.9191L37.3939 33.9191L37 33ZM37 33L37 33L37.3939 33.9191C37.7616 33.7616 38 33.4 38 33H37ZM37 33L37 33H38C38 32.6 37.7616 32.2384 37.3939 32.0809L37 33ZM28.3096 29.2755L37 33L37.3939 32.0809L28.7035 28.3564L28.3096 29.2755ZM28.3096 28.3564L27.0403 28.9004L27.4342 29.8195L28.7035 29.2755L28.3096 28.3564ZM35.9277 32.5404L27.4342 28.9004L27.0403 29.8195L35.5337 33.4596L35.9277 32.5404ZM23.197 38.9156L35.9277 33.4596L35.5337 32.5404L22.803 37.9964L23.197 38.9156ZM10.0723 33.4596L22.803 38.9156L23.197 37.9964L10.4663 32.5404L10.0723 33.4596ZM18.5658 28.9004L10.0723 32.5404L10.4663 33.4596L18.9597 29.8195L18.5658 28.9004ZM18.9597 28.9004L17.6904 28.3564L17.2965 29.2755L18.5658 29.8195L18.9597 28.9004ZM22.7676 27.0996L23 27L22.6061 26.0809L22.3737 26.1805L22.7676 27.0996ZM23 27H23L23.3939 26.0809C23.1424 25.973 22.8576 25.973 22.6061 26.0809L23 27ZM23 27L23.2324 27.0996L23.6263 26.1805L23.3939 26.0809L23 27ZM23.197 27.2836L23.6263 27.0996L23.2324 26.1805L22.803 26.3645L23.197 27.2836ZM22.3737 27.0996L22.803 27.2836L23.197 26.3645L22.7676 26.1805L22.3737 27.0996Z" fill="black"/>
</svg>
