<svg width="24" height="24" viewBox="0 0 24 24" fill="none" xmlns="http://www.w3.org/2000/svg">
<path d="M2.6748 8.5C2.6748 7.10218 2.6748 6.40326 2.90317 5.85195C3.20765 5.11687 3.79167 4.53284 4.52675 4.22836C5.07807 4 5.77698 4 7.1748 4H16.1748C17.5726 4 18.2715 4 18.8229 4.22836C19.5579 4.53284 20.142 5.11687 20.4464 5.85195C20.6748 6.40326 20.6748 7.10218 20.6748 8.5V9.25C20.6748 9.66421 20.339 10 19.9248 10H19.6748C18.5702 10 17.6748 10.8954 17.6748 12V12C17.6748 13.1046 18.5702 14 19.6748 14H19.9248C20.339 14 20.6748 14.3358 20.6748 14.75V15.5C20.6748 16.8978 20.6748 17.5967 20.4464 18.1481C20.142 18.8831 19.5579 19.4672 18.8229 19.7716C18.2715 20 17.5726 20 16.1748 20H7.1748C5.77698 20 5.07807 20 4.52675 19.7716C3.79167 19.4672 3.20765 18.8831 2.90317 18.1481C2.6748 17.5967 2.6748 16.8978 2.6748 15.5V14.75C2.6748 14.3358 3.01059 14 3.4248 14H3.6748C4.77937 14 5.6748 13.1046 5.6748 12V12C5.6748 10.8954 4.77937 10 3.6748 10H3.4248C3.01059 10 2.6748 9.66421 2.6748 9.25V8.5Z" stroke="#060606"/>
<path d="M11.2316 10.6885C11.3997 10.2536 11.4838 10.0361 11.6203 10.0059C11.6562 9.99802 11.6934 9.99802 11.7293 10.0059C11.8659 10.0361 11.9499 10.2536 12.118 10.6885C12.2137 10.9359 12.2615 11.0596 12.3509 11.1437C12.376 11.1673 12.4032 11.1883 12.4322 11.2065C12.5356 11.2711 12.6647 11.2831 12.9228 11.3071C13.3598 11.3477 13.5783 11.368 13.645 11.4973C13.6588 11.5241 13.6682 11.5531 13.6728 11.5831C13.6949 11.7279 13.5343 11.8796 13.2131 12.1829L13.1238 12.2671C12.9737 12.4089 12.8986 12.4798 12.8551 12.5683C12.8291 12.6213 12.8116 12.6785 12.8034 12.7375C12.7898 12.8358 12.8118 12.9386 12.8558 13.1443L12.8715 13.2178C12.9503 13.5867 12.9898 13.7712 12.9405 13.8618C12.8963 13.9433 12.8149 13.9954 12.7249 13.9999C12.6247 14.0048 12.4836 13.8855 12.2013 13.6468C12.0154 13.4895 11.9224 13.4109 11.8192 13.3802C11.7248 13.3521 11.6248 13.3521 11.5305 13.3802C11.4272 13.4109 11.3342 13.4895 11.1483 13.6468C10.866 13.8855 10.7249 14.0048 10.6247 13.9999C10.5347 13.9954 10.4533 13.9433 10.4091 13.8618C10.3598 13.7712 10.3993 13.5867 10.4781 13.2178L10.4939 13.1443C10.5378 12.9386 10.5598 12.8358 10.5462 12.7375C10.538 12.6785 10.5205 12.6213 10.4945 12.5683C10.451 12.4798 10.3759 12.4089 10.2258 12.2671L10.1366 12.1829C9.81532 11.8796 9.6547 11.7279 9.67682 11.5831C9.6814 11.5531 9.69079 11.5241 9.70461 11.4973C9.77133 11.368 9.98982 11.3477 10.4268 11.3071C10.6849 11.2831 10.814 11.2711 10.9174 11.2065C10.9464 11.1883 10.9736 11.1673 10.9987 11.1437C11.0881 11.0596 11.136 10.9359 11.2316 10.6885Z" fill="#060606" stroke="#060606"/>
</svg>
