<svg width="24" height="24" viewBox="0 0 24 24" fill="none" xmlns="http://www.w3.org/2000/svg">
<path d="M10.7219 9.83875C10.7219 11.1613 9.63764 12.242 8.28965 12.242C6.94167 12.242 5.85742 11.1613 5.85742 9.83875C5.85742 8.51618 6.94167 7.43555 8.28965 7.43555C9.63764 7.43555 10.7219 8.51618 10.7219 9.83875Z" stroke="#060606" stroke-linecap="round"/>
<path d="M11.982 10.3324C12.2389 9.89185 12.6629 9.56898 13.162 9.43657C13.6612 9.30413 14.1929 9.3736 14.6398 9.62906C15.0866 9.88443 15.4111 10.3041 15.5438 10.7946C15.6765 11.285 15.6072 11.8076 15.3504 12.248C15.0935 12.6885 14.6695 13.0114 14.1704 13.1438C13.6712 13.2762 13.1395 13.2068 12.6926 12.9513C12.2458 12.6959 11.9213 12.2762 11.7886 11.7857C11.6559 11.2954 11.7252 10.7727 11.982 10.3324L11.982 10.3324Z" stroke="#060606"/>
<path d="M12.6656 19.4998H3.91408V20.4998H12.6656V19.4998ZM3.50498 19.0889C3.63534 18.2989 3.94415 17.1906 4.65904 16.2891C5.35595 15.4102 6.46386 14.6934 8.28983 14.6934V13.6934C6.15283 13.6934 4.7585 14.5542 3.8755 15.6678C3.01047 16.7586 2.66167 18.0574 2.51832 18.926L3.50498 19.0889ZM8.28983 14.6934C10.1158 14.6934 11.2237 15.4102 11.9206 16.2891C12.6355 17.1906 12.9443 18.2989 13.0747 19.0889L14.0613 18.926C13.918 18.0574 13.5692 16.7586 12.7042 15.6678C11.8212 14.5542 10.4268 13.6934 8.28983 13.6934V14.6934ZM3.91408 19.4998C3.62122 19.4998 3.47301 19.2826 3.50498 19.0889L2.51832 18.926C2.37044 19.8221 3.10236 20.4998 3.91408 20.4998V19.4998ZM12.6656 20.4998C13.4773 20.4998 14.2092 19.8221 14.0613 18.926L13.0747 19.0889C13.1066 19.2826 12.9584 19.4998 12.6656 19.4998V20.4998Z" fill="#060606"/>
<path d="M12.6809 20.0001L12.6734 19.5001L12.6809 20.5001V20.0001ZM17.3681 18.9155L16.8839 19.0401L17.3681 18.9155ZM12.0046 15.627L11.7385 15.2037L11.2171 15.5315L11.645 15.9744L12.0046 15.627ZM13.568 19.0079L14.0613 18.9264L13.568 19.0079ZM16.47 19.5001H12.6809V20.5001H16.47V19.5001ZM16.8839 19.0401C16.9385 19.2522 16.7832 19.5001 16.47 19.5001V20.5001C17.3409 20.5001 18.0927 19.7255 17.8524 18.791L16.8839 19.0401ZM13.6665 15.6614C14.6607 15.6614 15.3596 16.1386 15.8727 16.8078C16.3968 17.4912 16.7079 18.3556 16.8839 19.0401L17.8524 18.791C17.6616 18.049 17.3082 17.0363 16.6663 16.1993C16.0135 15.348 15.045 14.6614 13.6665 14.6614V15.6614ZM12.2707 16.0503C12.6502 15.8117 13.1065 15.6614 13.6665 15.6614V14.6614C12.9143 14.6614 12.2742 14.867 11.7385 15.2037L12.2707 16.0503ZM11.645 15.9744C12.557 16.9185 12.9279 18.2001 13.0747 19.0893L14.0613 18.9264C13.9012 17.9562 13.4828 16.4375 12.3642 15.2796L11.645 15.9744ZM13.0747 19.0893C13.1064 19.2818 12.9612 19.4958 12.6734 19.5001L12.6884 20.5C13.4907 20.488 14.2078 19.8137 14.0613 18.9264L13.0747 19.0893Z" fill="#060606"/>
<rect x="16.3513" y="7.17748" width="4.40318" height="0.483868" rx="0.241934" stroke="#060606" stroke-width="0.483868" stroke-linecap="round"/>
<rect x="18.7977" y="5.24435" width="4.34997" height="0.488705" rx="0.244352" transform="rotate(90 18.7977 5.24435)" stroke="#060606" stroke-width="0.488705" stroke-linecap="round"/>
</svg>
