<svg width="48" height="49" viewBox="0 0 48 49" fill="none" xmlns="http://www.w3.org/2000/svg">
<path d="M36 6.584V6.584C38.8284 6.584 40.2426 6.584 41.1213 7.46268C41.1213 7.46268 41.1213 7.46268 41.1213 7.46268C42 8.34136 42 9.75557 42 12.584L42 17.584C42 18.0554 42 18.2911 41.8536 18.4375C41.7071 18.584 41.4714 18.584 41 18.584L30 18.584M36 6.584V6.584C33.1716 6.584 31.7574 6.584 30.8787 7.46268C30.8787 7.46268 30.8787 7.46268 30.8787 7.46268C30 8.34136 30 9.75557 30 12.584L30 18.584M36 6.584L10 6.584C8.11438 6.584 7.17157 6.584 6.58579 7.16979C6 7.75557 6 8.69838 6 10.584L6 42.584L12 40.584L18 42.584L24 40.584L30 42.584L30 18.584" stroke="#353535" stroke-width="2"/>
<path d="M14 14.584L22 14.584" stroke="#353535" stroke-width="2" stroke-linecap="round"/>
<path d="M16 22.584H14" stroke="#353535" stroke-width="2" stroke-linecap="round"/>
<path d="M14 30.584L20 30.584" stroke="#353535" stroke-width="2" stroke-linecap="round"/>
</svg>
