<svg width="24" height="24" viewBox="0 0 24 24" fill="none" xmlns="http://www.w3.org/2000/svg">
<path d="M3.6748 11.7577C3.6748 10.2349 3.6748 9.47345 3.98847 8.80416C4.30214 8.13487 4.89122 7.63935 6.06938 6.64831L7.21224 5.68696C9.34174 3.89565 10.4065 3 11.6748 3C12.9431 3 14.0079 3.89565 16.1374 5.68696L17.2802 6.64831C18.4584 7.63935 19.0475 8.13487 19.3611 8.80416C19.6748 9.47345 19.6748 10.2349 19.6748 11.7577V16.5136C19.6748 18.6285 19.6748 19.6859 19.0053 20.3429C18.3359 20.9999 17.2584 20.9999 15.1034 20.9999H8.24623C6.09124 20.9999 5.01375 20.9999 4.34427 20.3429C3.6748 19.6859 3.6748 18.6285 3.6748 16.5136V11.7577Z" stroke="#060606"/>
<path d="M14.5317 21V15.2705C14.5317 14.7182 14.084 14.2705 13.5317 14.2705H9.81738C9.2651 14.2705 8.81738 14.7182 8.81738 15.2705V21" stroke="#060606" stroke-linecap="round" stroke-linejoin="round"/>
</svg>
