<svg width="49" height="48" viewBox="0 0 49 48" fill="none" xmlns="http://www.w3.org/2000/svg">
<path d="M12.0988 24.2513L2.86564 20.1525C2.54078 20.0083 2.54078 19.5473 2.86564 19.403L23.2361 10.3602C23.7528 10.1309 24.3424 10.1309 24.859 10.3602L45.2295 19.403C45.5543 19.5473 45.5543 20.0083 45.2295 20.1525L35.9963 24.2513" stroke="#353535" stroke-width="2" stroke-linecap="round" stroke-linejoin="round"/>
<path d="M28.554 27.1111C28.554 27.6634 29.0017 28.1111 29.554 28.1111C30.1062 28.1111 30.554 27.6634 30.554 27.1111H28.554ZM28.554 12.4445V27.1111H30.554V12.4445H28.554Z" fill="#353535"/>
<path d="M11.9326 24.6667V34.4445L24.047 39.3334L36.1613 34.4445V24.6667C36.1613 24.6667 35.06 19.7778 24.047 19.7778C13.0339 19.7778 11.9326 24.6667 11.9326 24.6667Z" stroke="#353535" stroke-width="2" stroke-linecap="round" stroke-linejoin="round"/>
</svg>
