<svg width="24" height="24" viewBox="0 0 24 24" fill="none" xmlns="http://www.w3.org/2000/svg">
<path d="M18.3529 3V3C19.142 3 19.5365 3 19.8502 3.12155C20.3223 3.30444 20.6956 3.67768 20.8785 4.14977C21 4.46352 21 4.85803 21 5.64706V18.12C21 19.1281 21 19.6321 20.8038 20.0172C20.6312 20.3559 20.3559 20.6312 20.0172 20.8038C19.6321 21 19.1281 21 18.12 21H5.88C4.87191 21 4.36786 21 3.98282 20.8038C3.64413 20.6312 3.36876 20.3559 3.19619 20.0172C3 19.6321 3 19.1281 3 18.12V5.64706C3 4.85803 3 4.46352 3.12155 4.14977C3.30444 3.67768 3.67768 3.30444 4.14977 3.12155C4.46352 3 4.85803 3 5.64706 3V3" stroke="#060606"/>
<path d="M21 13.5879H18.2062C17.5105 13.5879 17.1626 13.5879 16.9008 13.7766C16.6389 13.9654 16.5289 14.2954 16.3089 14.9554L16.1617 15.3968C15.9417 16.0568 15.8317 16.3868 15.5698 16.5756C15.3079 16.7644 14.9601 16.7644 14.2644 16.7644H9.73564C9.03992 16.7644 8.69205 16.7644 8.43017 16.5756C8.16828 16.3868 8.05828 16.0568 7.83827 15.3968L7.69114 14.9554C7.47114 14.2954 7.36113 13.9654 7.09925 13.7766C6.83736 13.5879 6.4895 13.5879 5.79378 13.5879H3M16.4118 14.6467H7.58824" stroke="#060606"/>
<path d="M21 8.29395H18.2062C17.5105 8.29395 17.1626 8.29395 16.9008 8.4827C16.6389 8.67146 16.5289 9.00147 16.3089 9.66149L16.1617 10.1029C15.9417 10.7629 15.8317 11.0929 15.5698 11.2817C15.3079 11.4704 14.9601 11.4704 14.2644 11.4704H9.73564C9.03992 11.4704 8.69205 11.4704 8.43017 11.2817C8.16828 11.0929 8.05828 10.7629 7.83827 10.1029L7.69114 9.66149C7.47114 9.00147 7.36113 8.67146 7.09925 8.4827C6.83736 8.29395 6.4895 8.29395 5.79378 8.29395H3M16.4118 9.35277H7.58824" stroke="#060606"/>
<path d="M18.8824 3H18.2062C17.5105 3 17.1626 3 16.9008 3.18876C16.6389 3.37752 16.5289 3.70753 16.3089 4.36754L16.1617 4.80893C15.9417 5.46895 15.8317 5.79896 15.5698 5.98771C15.3079 6.17647 14.9601 6.17647 14.2644 6.17647H9.73564C9.03991 6.17647 8.69205 6.17647 8.43016 5.98771C8.16828 5.79896 8.05827 5.46895 7.83827 4.80893L7.69114 4.36754C7.47113 3.70752 7.36113 3.37752 7.09924 3.18876C6.83736 3 6.48949 3 5.79377 3H5.11765M16.4118 4.05882H7.58823" stroke="#060606"/>
</svg>
