<svg width="24" height="24" viewBox="0 0 24 24" fill="none" xmlns="http://www.w3.org/2000/svg">
<path d="M5 3H19C19.5523 3 20 3.44772 20 4V20C20 20.5523 19.5523 21 19 21H5C4.44772 21 4 20.5523 4 20V4C4 3.44772 4.44772 3 5 3Z" stroke="#060606" stroke-linecap="round" stroke-linejoin="round"/>
<path d="M19.3845 3.5293L16.603 7.83649C16.4188 8.12172 16.1025 8.294 15.7629 8.294H8.23677C7.89724 8.294 7.5809 8.12172 7.39671 7.83649L4.61523 3.5293" stroke="#060606" stroke-linejoin="round"/>
<path d="M19.3845 20.4707L16.603 16.1635C16.4188 15.8783 16.1025 15.706 15.7629 15.706H8.23677C7.89724 15.706 7.5809 15.8783 7.39671 16.1635L4.61523 20.4707" stroke="#060606" stroke-linejoin="round"/>
<path d="M12.001 12.5293V15.7058" stroke="#060606" stroke-linecap="round" stroke-linejoin="round"/>
</svg>
