<svg width="49" height="48" viewBox="0 0 49 48" fill="none" xmlns="http://www.w3.org/2000/svg">
<path d="M36.7684 6H39.1888C40.1969 6 40.7009 6 41.086 6.19619C41.4247 6.36876 41.7 6.64413 41.8726 6.98282C42.0688 7.36786 42.0688 7.87191 42.0688 8.88V39.12C42.0688 40.1281 42.0688 40.6321 41.8726 41.0172C41.7 41.3559 41.4247 41.6312 41.086 41.8038C40.7009 42 40.1969 42 39.1888 42H8.90612C7.89803 42 7.39398 42 7.00894 41.8038C6.67025 41.6312 6.39488 41.3559 6.22231 41.0172C6.02612 40.6321 6.02612 40.1281 6.02612 39.12V8.88C6.02612 7.87191 6.02612 7.36786 6.22231 6.98282C6.39488 6.64413 6.67025 6.36876 7.00894 6.19619C7.39398 6 7.89803 6 8.90612 6H11.3265" stroke="#060606" stroke-width="2"/>
<path d="M42.0688 27.1765H35.0291C34.3337 27.1765 33.9859 27.1765 33.7241 27.3652C33.4622 27.5538 33.3522 27.8837 33.132 28.5434L31.9242 32.1626C31.704 32.8223 31.5939 33.1521 31.3321 33.3408C31.0702 33.5295 30.7225 33.5295 30.027 33.5295H18.0679C17.3724 33.5295 17.0247 33.5295 16.7628 33.3408C16.501 33.1521 16.3909 32.8223 16.1707 32.1626L14.9629 28.5434C14.7427 27.8837 14.6327 27.5538 14.3708 27.3652C14.109 27.1765 13.7612 27.1765 13.0658 27.1765H6.02612M32.8814 29.2942H15.2135" stroke="#060606" stroke-width="2"/>
<path d="M42.0688 16.5881H35.0291C34.3337 16.5881 33.9859 16.5881 33.7241 16.7768C33.4622 16.9654 33.3522 17.2953 33.132 17.955L31.9242 21.5742C31.704 22.2339 31.5939 22.5638 31.3321 22.7524C31.0702 22.9411 30.7225 22.9411 30.027 22.9411H18.0679C17.3724 22.9411 17.0247 22.9411 16.7628 22.7524C16.501 22.5638 16.3909 22.2339 16.1707 21.5742L14.9629 17.955C14.7427 17.2953 14.6327 16.9654 14.3708 16.7768C14.109 16.5881 13.7612 16.5881 13.0658 16.5881H6.02612M32.8814 18.7058H15.2135" stroke="#060606" stroke-width="2"/>
<path d="M37.8284 6H35.0291C34.3336 6 33.9858 6 33.724 6.18865C33.4622 6.37731 33.3521 6.70716 33.1319 7.36687L31.9241 10.9861C31.7039 11.6458 31.5938 11.9756 31.332 12.1643C31.0702 12.3529 30.7224 12.3529 30.0269 12.3529H18.0678C17.3723 12.3529 17.0246 12.3529 16.7628 12.1643C16.5009 11.9756 16.3908 11.6458 16.1707 10.9861L14.9628 7.36687C14.7427 6.70716 14.6326 6.37731 14.3707 6.18865C14.1089 6 13.7612 6 13.0657 6H10.2664M32.8814 8.11765H15.2134" stroke="#060606" stroke-width="2"/>
</svg>
