<svg width="48" height="49" viewBox="0 0 48 49" fill="none" xmlns="http://www.w3.org/2000/svg">
<circle cx="24" cy="24.584" r="17" stroke="#353535" stroke-width="2"/>
<path d="M29.75 24.584C29.75 29.4664 29.0062 33.842 27.8366 36.9608C27.2505 38.5239 26.5767 39.7193 25.8791 40.5061C25.1806 41.2939 24.5433 41.584 24 41.584C23.4567 41.584 22.8194 41.2939 22.1209 40.5061C21.4233 39.7193 20.7495 38.5239 20.1634 36.9608C18.9938 33.842 18.25 29.4664 18.25 24.584C18.25 19.7016 18.9938 15.326 20.1634 12.2072C20.7495 10.6441 21.4233 9.44865 22.1209 8.66192C22.8194 7.87403 23.4567 7.58398 24 7.58398C24.5433 7.58398 25.1806 7.87403 25.8791 8.66192C26.5767 9.44865 27.2505 10.6441 27.8366 12.2072C29.0062 15.326 29.75 19.7016 29.75 24.584Z" stroke="#353535" stroke-width="2"/>
<path d="M7.125 24.584H40.875" stroke="#353535" stroke-width="2" stroke-linecap="round"/>
</svg>
