<svg width="48" height="49" viewBox="0 0 48 49" fill="none" xmlns="http://www.w3.org/2000/svg">
<path d="M40 22.3824C40 33.5958 26.9622 40.9577 24.425 42.2842C24.1556 42.425 23.8444 42.425 23.575 42.2842C21.0378 40.9577 8 33.5958 8 22.3824C8 12.8529 15.7525 6.5 24 6.5C32.5333 6.5 40 12.8529 40 22.3824Z" stroke="#353535" stroke-width="2"/>
<path d="M31.5335 22.3822C31.5335 26.5012 28.1676 29.8528 24.0001 29.8528C19.8326 29.8528 16.4668 26.5012 16.4668 22.3822C16.4668 18.2633 19.8326 14.9116 24.0001 14.9116C28.1676 14.9116 31.5335 18.2633 31.5335 22.3822Z" stroke="#353535" stroke-width="2"/>
</svg>
