<svg width="49" height="48" viewBox="0 0 49 48" fill="none" xmlns="http://www.w3.org/2000/svg">
<path d="M40.0665 21.8824C40.0665 33.097 27.0104 40.4592 24.4722 41.7846C24.203 41.9251 23.892 41.9251 23.6229 41.7846C21.0846 40.4592 8.02856 33.097 8.02856 21.8824C8.02856 12.3529 15.7903 6 24.0475 6C32.591 6 40.0665 12.3529 40.0665 21.8824Z" stroke="#060606" stroke-width="2"/>
<path d="M31.5913 21.8822C31.5913 26 28.2221 29.3528 24.0478 29.3528C19.8736 29.3528 16.5044 26 16.5044 21.8822C16.5044 17.7644 19.8736 14.4116 24.0478 14.4116C28.2221 14.4116 31.5913 17.7644 31.5913 21.8822Z" stroke="#060606" stroke-width="2"/>
</svg>
