<svg width="32" height="32" viewBox="0 0 32 32" fill="none" xmlns="http://www.w3.org/2000/svg">
<path d="M8.86304 10.4916V8.95835C8.86304 6.80697 8.86304 5.73129 9.55475 5.13306C10.2465 4.53484 11.3109 4.68994 13.4398 5.00015L20.1988 5.98503C22.6475 6.34184 23.8718 6.52025 24.6027 7.36536C25.3336 8.21047 25.3336 9.44776 25.3336 11.9223V20.7442C25.3336 23.2188 25.3336 24.456 24.6027 25.3011C23.8718 26.1463 22.6475 26.3247 20.1988 26.6815L13.4398 27.6664C11.3109 27.9766 10.2465 28.1317 9.55475 27.5334C8.86304 26.9352 8.86304 25.8595 8.86304 23.7082V22.4124" stroke="#353535"/>
<path d="M19.4508 16.3333L19.8442 16.0247L20.0862 16.3333L19.8442 16.6418L19.4508 16.3333ZM5.33316 16.8333C5.05702 16.8333 4.83316 16.6094 4.83316 16.3333C4.83316 16.0571 5.05702 15.8333 5.33316 15.8333V16.8333ZM15.1384 10.0247L19.8442 16.0247L19.0574 16.6418L14.3515 10.6418L15.1384 10.0247ZM19.8442 16.6418L15.1384 22.6418L14.3515 22.0247L19.0574 16.0247L19.8442 16.6418ZM19.4508 16.8333H5.33316V15.8333H19.4508V16.8333Z" fill="#353535"/>
</svg>
