<svg width="74" height="62" viewBox="0 0 74 62" fill="none" xmlns="http://www.w3.org/2000/svg">
<path d="M49.5567 13.8333C49.5567 20.295 44.0104 25.6667 36.9997 25.6667C29.989 25.6667 24.4428 20.295 24.4428 13.8333C24.4428 7.37168 29.989 2 36.9997 2C44.0104 2 49.5567 7.37168 49.5567 13.8333Z" stroke="#353535" stroke-width="3" stroke-linecap="round"/>
<path d="M44.5373 6.83547C45.5374 5.19242 47.0365 3.85531 48.8553 3.00456C50.6746 2.15355 52.7247 1.83135 54.7439 2.0835C56.7629 2.33562 58.6487 3.1491 60.1652 4.41052C61.6808 5.67126 62.7573 7.32045 63.2722 9.14312C63.7869 10.9649 63.7208 12.8894 63.0809 14.6772C62.4408 16.4661 61.2511 18.0474 59.6492 19.2134C58.0465 20.3799 56.1065 21.075 54.0738 21.2013C52.0411 21.3277 50.0187 20.8788 48.2642 19.918" stroke="#353535" stroke-width="3"/>
<path d="M29.4644 6.83547C28.4643 5.19242 26.9652 3.85531 25.1464 3.00456C23.3271 2.15355 21.277 1.83135 19.2578 2.0835C17.2388 2.33562 15.3529 3.1491 13.8365 4.41052C12.3209 5.67126 11.2443 7.32045 10.7294 9.14312C10.2148 10.9649 10.2809 12.8894 10.9207 14.6772C11.5609 16.4661 12.7506 18.0474 14.3525 19.2134C15.9552 20.3799 17.8952 21.075 19.9279 21.2013C21.9606 21.3277 23.983 20.8788 25.7375 19.918" stroke="#353535" stroke-width="3"/>
<path d="M37.0011 33.8335C59.7938 33.8335 62.428 54.6925 62.7324 59.5139C62.7672 60.0651 62.3245 60.5002 61.7722 60.5002H12.23C11.6777 60.5002 11.235 60.0651 11.2698 59.5139C11.5742 54.6925 14.2084 33.8335 37.0011 33.8335Z" stroke="#353535" stroke-width="3" stroke-linecap="round"/>
<path d="M71.9872 50.5213L70.5066 50.7619L70.5066 50.7619L71.9872 50.5213ZM42.0924 34.216L41.0117 33.1758L39.0158 35.2494L41.8588 35.6977L42.0924 34.216ZM61.2751 51.6114L59.8404 52.049L60.1644 53.1114H61.2751V51.6114ZM53.399 30.8892C59.7832 30.8892 63.8329 34.588 66.4541 39.0412C69.0953 43.5286 70.1546 48.5962 70.5066 50.7619L73.4677 50.2807C73.0939 47.9801 71.9602 42.4816 69.0395 37.5195C66.0986 32.5232 61.2172 27.8892 53.399 27.8892V30.8892ZM43.1732 35.2562C45.6399 32.6934 48.9266 30.8892 53.399 30.8892V27.8892C48.0002 27.8892 43.9621 30.1105 41.0117 33.1758L43.1732 35.2562ZM41.8588 35.6977C53.1312 37.475 57.8363 45.4788 59.8404 52.049L62.7099 51.1738C60.5288 44.0234 55.1845 34.7617 42.3261 32.7343L41.8588 35.6977ZM71.0306 50.1114H61.2751V53.1114H71.0306V50.1114ZM70.5066 50.7619C70.4432 50.3721 70.7653 50.1114 71.0306 50.1114V53.1114C72.4834 53.1114 73.7216 51.8426 73.4677 50.2807L70.5066 50.7619Z" fill="#353535"/>
<path d="M31.9074 34.2158L32.141 35.6975L34.9842 35.2493L32.9882 33.1756L31.9074 34.2158ZM2.01282 50.5213L0.532248 50.2807L0.532248 50.2807L2.01282 50.5213ZM12.7234 51.6114V53.1114H13.8341L14.1581 52.049L12.7234 51.6114ZM20.6011 30.8892C25.0734 30.8892 28.3601 32.6933 30.8267 35.256L32.9882 33.1756C30.0378 30.1104 25.9998 27.8892 20.6011 27.8892V30.8892ZM3.4934 50.7619C3.84538 48.5962 4.9047 43.5286 7.54599 39.0412C10.1672 34.588 14.2169 30.8892 20.6011 30.8892V27.8892C12.7829 27.8892 7.90149 32.5232 4.96061 37.5195C2.03981 42.4816 0.906148 47.9801 0.532248 50.2807L3.4934 50.7619ZM2.96941 50.1114C3.23474 50.1114 3.55674 50.3721 3.4934 50.7619L0.532248 50.2807C0.278398 51.8426 1.51655 53.1114 2.96941 53.1114V50.1114ZM12.7234 50.1114H2.96941V53.1114H12.7234V50.1114ZM14.1581 52.049C16.1623 45.4785 20.8676 37.4744 32.141 35.6975L31.6739 32.7341C18.8144 34.761 13.4698 44.0231 11.2886 51.1738L14.1581 52.049Z" fill="#353535"/>
</svg>
