<svg width="48" height="49" viewBox="0 0 48 49" fill="none" xmlns="http://www.w3.org/2000/svg">
<path d="M30.4811 16.1967C30.4811 19.8403 27.6046 22.7522 24.1072 22.7522C20.6099 22.7522 17.7334 19.8403 17.7334 16.1967C17.7334 12.553 20.6099 9.64111 24.1072 9.64111C27.6046 9.64111 30.4811 12.553 30.4811 16.1967Z" stroke="#060606" stroke-width="2" stroke-linecap="round"/>
<path d="M28.2609 12.2802C28.7727 11.3717 29.5337 10.6431 30.4445 10.183C31.3549 9.72293 32.376 9.55062 33.3796 9.686C34.3834 9.8214 35.3284 10.2591 36.0945 10.9474C36.8608 11.636 37.4136 12.5449 37.6793 13.5608C37.945 14.5769 37.9106 15.6512 37.5807 16.6468C37.251 17.6422 36.6418 18.5113 35.8339 19.1465C35.0264 19.7814 34.0561 20.1546 33.0461 20.2225C32.0362 20.2903 31.0278 20.05 30.148 19.5295" stroke="#060606" stroke-width="2"/>
<path d="M19.9559 12.2802C19.4441 11.3717 18.683 10.6431 17.7723 10.183C16.8619 9.72293 15.8408 9.55062 14.8372 9.686C13.8334 9.8214 12.8884 10.2591 12.1223 10.9474C11.356 11.636 10.8032 12.5449 10.5375 13.5608C10.2718 14.5769 10.3062 15.6512 10.636 16.6468C10.9658 17.6422 11.575 18.5113 12.3829 19.1465C13.1904 19.7814 14.1607 20.1546 15.1706 20.2225C16.1806 20.2903 17.189 20.05 18.0688 19.5295" stroke="#060606" stroke-width="2"/>
<path d="M24.1085 27.53C35.5076 27.53 37.2949 38.2741 37.5751 41.6432C37.6209 42.1936 37.1795 42.6411 36.6272 42.6411H11.5898C11.0376 42.6411 10.5962 42.1936 10.6419 41.6432C10.9222 38.2741 12.7094 27.53 24.1085 27.53Z" stroke="#060606" stroke-width="2" stroke-linecap="round"/>
<path d="M42.3851 36.5173L43.3705 36.3469L43.3705 36.3469L42.3851 36.5173ZM26.7793 27.7467L26.0327 27.0814L24.8317 28.4293L26.6114 28.7325L26.7793 27.7467ZM36.8419 37.6041L35.8795 37.8758L36.0852 38.6041H36.8419V37.6041ZM32.7104 26.0115C35.7485 26.0115 37.7602 27.8034 39.1308 30.1264C40.5115 32.4666 41.1429 35.2033 41.3997 36.6878L43.3705 36.3469C43.0985 34.775 42.416 31.7588 40.8533 29.1101C39.2804 26.4442 36.7191 24.0115 32.7104 24.0115V26.0115ZM27.5259 28.4119C28.7944 26.9882 30.4584 26.0115 32.7104 26.0115V24.0115C29.7842 24.0115 27.6058 25.3159 26.0327 27.0814L27.5259 28.4119ZM26.6114 28.7325C32.382 29.7154 34.8265 34.1466 35.8795 37.8758L37.8043 37.3323C36.6619 33.2865 33.8349 27.934 26.9472 26.7609L26.6114 28.7325ZM41.4397 36.6041H36.8419V38.6041H41.4397V36.6041ZM41.3997 36.6878C41.3988 36.6823 41.3982 36.6687 41.4031 36.652C41.4076 36.6367 41.4147 36.6254 41.421 36.6182C41.434 36.6035 41.445 36.6041 41.4397 36.6041V38.6041C42.6048 38.6041 43.5846 37.5847 43.3705 36.3469L41.3997 36.6878Z" fill="#060606"/>
<path d="M21.4361 27.7467L21.6039 28.7325L23.3838 28.4294L22.1827 27.0814L21.4361 27.7467ZM5.83041 36.5176L6.81577 36.688L6.81577 36.688L5.83041 36.5176ZM11.3728 37.6043V38.6043H12.1296L12.3352 37.876L11.3728 37.6043ZM15.5052 26.0117C17.7571 26.0117 19.421 26.9884 20.6895 28.4119L22.1827 27.0814C20.6096 25.316 18.4312 24.0117 15.5052 24.0117V26.0117ZM6.81577 36.688C7.07261 35.2036 7.70408 32.4668 9.0848 30.1267C10.4554 27.8037 12.4671 26.0117 15.5052 26.0117V24.0117C11.4965 24.0117 8.93517 26.4445 7.36227 29.1103C5.7995 31.759 5.11701 34.7752 4.84505 36.3471L6.81577 36.688ZM6.7758 36.6043C6.77054 36.6043 6.78155 36.6038 6.79448 36.6185C6.80081 36.6257 6.80791 36.6369 6.8124 36.6523C6.81727 36.6689 6.81672 36.6825 6.81577 36.688L4.84505 36.3471C4.63088 37.585 5.61071 38.6043 6.7758 38.6043V36.6043ZM11.3728 36.6043H6.7758V38.6043H11.3728V36.6043ZM12.3352 37.876C13.3882 34.1467 15.8329 29.7152 21.6039 28.7325L21.2682 26.7609C14.38 27.9338 11.5528 33.2866 10.4104 37.3326L12.3352 37.876Z" fill="#060606"/>
</svg>
