<svg width="49" height="49" viewBox="0 0 49 49" fill="none" xmlns="http://www.w3.org/2000/svg">
<path d="M36.1321 27.4957L41.4346 32.7919C41.9835 33.3402 42.258 33.6143 42.3038 33.9478C42.3163 34.0382 42.3163 34.1298 42.3038 34.2202C42.258 34.5536 41.9835 34.8278 41.4346 35.3761C38.5493 38.2579 37.1067 39.6988 35.3187 40.052C34.8312 40.1483 34.3337 40.1836 33.8375 40.1572C32.0175 40.0605 30.3856 38.838 27.1219 36.3931L23.9591 34.0238C21.3339 32.0572 20.0213 31.0739 18.8648 29.9188C17.7083 28.7636 16.7235 27.4521 14.754 24.8291L14.7539 24.8291L12.3894 21.6801C9.94425 18.4238 8.72166 16.7956 8.62099 14.9795C8.59299 14.4742 8.62901 13.9675 8.72819 13.4713C9.08473 11.6876 10.5253 10.2488 13.4065 7.37098C13.9523 6.82582 14.2252 6.55324 14.5568 6.50696C14.6485 6.49416 14.7415 6.49416 14.8332 6.50696C15.1648 6.55324 15.4377 6.82582 15.9835 7.37098L21.2878 12.6689C21.9556 13.3359 22.2895 13.6694 22.2895 14.084C22.2895 14.4985 21.9556 14.832 21.2878 15.499L19.2443 17.5401C19.2118 17.5725 19.1956 17.5888 19.1815 17.6041C18.9102 17.8985 18.8407 18.3265 19.0049 18.6917C19.0135 18.7106 19.0237 18.7311 19.0442 18.7721L19.0443 18.7722C19.27 19.2231 19.3828 19.4485 19.4977 19.6663C21.6632 23.7702 25.0193 27.1231 29.1253 29.2847C29.3431 29.3993 29.5706 29.513 30.0256 29.7402L30.0258 29.7403L30.0259 29.7403C30.0678 29.7613 30.0887 29.7717 30.108 29.7803C30.4723 29.9435 30.8988 29.8743 31.1929 29.6043C31.2085 29.5901 31.2249 29.5737 31.2578 29.5409L33.3054 27.4957C33.9717 26.8301 34.3049 26.4974 34.7187 26.4974C35.1326 26.4974 35.4658 26.8301 36.1321 27.4957Z" stroke="#060606" stroke-width="2"/>
</svg>
