<svg width="48" height="49" viewBox="0 0 48 49" fill="none" xmlns="http://www.w3.org/2000/svg">
<path d="M35.4142 27.4982L40.7105 32.7944C41.2568 33.3408 41.5299 33.6139 41.5762 33.9459C41.589 34.0375 41.589 34.1304 41.5762 34.222C41.5299 34.554 41.2568 34.8272 40.7105 35.3735C37.8328 38.2512 36.3939 39.69 34.6109 40.0458C34.1161 40.1445 33.6108 40.1804 33.107 40.1526C31.2916 40.0527 29.6637 38.8318 26.408 36.39L23.2571 34.0268L23.2571 34.0268C20.633 32.0587 19.3209 31.0747 18.1651 29.9189C17.0093 28.7631 16.0253 27.451 14.0572 24.8269L14.0571 24.8268L11.694 21.676C9.25223 18.4203 8.03133 16.7924 7.93134 14.977C7.9036 14.4732 7.9395 13.9679 8.03822 13.4731C8.39395 11.69 9.83279 10.2512 12.7105 7.37352C13.2568 6.8272 13.5299 6.55405 13.862 6.50777C13.9535 6.49501 14.0465 6.49501 14.138 6.50777C14.4701 6.55405 14.7432 6.8272 15.2895 7.37352L20.5858 12.6698C21.2525 13.3364 21.5858 13.6698 21.5858 14.084C21.5858 14.4982 21.2525 14.8315 20.5858 15.4982L18.5435 17.5405C18.5112 17.5728 18.495 17.589 18.481 17.6042C18.21 17.8987 18.1406 18.3262 18.3046 18.6912C18.3131 18.7101 18.3233 18.7305 18.3437 18.7714L18.3437 18.7715C18.5687 19.2214 18.6812 19.4464 18.7958 19.6638C20.9594 23.7695 24.3145 27.1246 28.4202 29.2882C28.6375 29.4027 28.8624 29.5152 29.3122 29.7401L29.3125 29.7403C29.3534 29.7607 29.3739 29.7709 29.3928 29.7794C29.7578 29.9434 30.1853 29.874 30.4797 29.603C30.495 29.589 30.5112 29.5728 30.5435 29.5405L32.5858 27.4982C33.2525 26.8315 33.5858 26.4982 34 26.4982C34.4142 26.4982 34.7475 26.8315 35.4142 27.4982Z" stroke="#353535" stroke-width="2"/>
</svg>
