<svg width="24" height="24" viewBox="0 0 24 24" fill="none" xmlns="http://www.w3.org/2000/svg">
<path d="M6.03269 12.1256L1.84299 10.2636C1.51835 10.1193 1.51835 9.65851 1.84299 9.51423L11.1877 5.36101C11.7049 5.13118 12.2951 5.13118 12.8123 5.36101L22.157 9.51423C22.4817 9.65851 22.4817 10.1193 22.157 10.2636L17.9673 12.1256" stroke="#353535" stroke-linecap="round" stroke-linejoin="round"/>
<path d="M14.25 13.556C14.25 13.8321 14.4739 14.056 14.75 14.056C15.0261 14.056 15.25 13.8321 15.25 13.556H14.25ZM14.25 6.22266V13.556H15.25V6.22266H14.25Z" fill="#353535"/>
<path d="M5.94977 12.3337V17.2225L11.9998 19.667L18.0498 17.2225V12.3337C18.0498 12.3337 17.4998 9.88921 11.9998 9.88921C6.49977 9.88921 5.94977 12.3337 5.94977 12.3337Z" stroke="#353535" stroke-linecap="round" stroke-linejoin="round"/>
</svg>
