<svg width="24" height="24" viewBox="0 0 24 24" fill="none" xmlns="http://www.w3.org/2000/svg">
<path d="M20 10.9412C20 16.2873 14.0729 19.8825 12.4222 20.7802C12.1551 20.9254 11.8449 20.9254 11.5778 20.7802C9.92707 19.8825 4 16.2873 4 10.9412C4 6.17647 7.87627 3 12 3C16.2667 3 20 6.17647 20 10.9412Z" stroke="#060606"/>
<path d="M15.7669 10.9413C15.7669 13.0008 14.0839 14.6766 12.0002 14.6766C9.91643 14.6766 8.23352 13.0008 8.23352 10.9413C8.23352 8.88188 9.91643 7.20605 12.0002 7.20605C14.0839 7.20605 15.7669 8.88188 15.7669 10.9413Z" stroke="#060606"/>
</svg>
