<svg width="24" height="24" viewBox="0 0 24 24" fill="none" xmlns="http://www.w3.org/2000/svg">
<path d="M14.25 6.875V6.875C14.25 5.58935 14.25 4.94653 13.9655 4.47179C13.7964 4.18969 13.5603 3.95363 13.2782 3.78454C12.8035 3.5 12.1606 3.5 10.875 3.5H7C5.11438 3.5 4.17157 3.5 3.58579 4.08579C3 4.67157 3 5.61438 3 7.5V11.375C3 12.6606 3 13.3035 3.28454 13.7782C3.45363 14.0603 3.68969 14.2964 3.97179 14.4655C4.44653 14.75 5.08935 14.75 6.375 14.75V14.75" stroke="#353535"/>
<rect x="9.75" y="10.25" width="11.25" height="11.25" rx="2" stroke="#353535"/>
</svg>
